<?xml version="1.0" standalone="no"?>
<!DOCTYPE svg PUBLIC "-//W3C//DTD SVG 20010904//EN"
 "http://www.w3.org/TR/2001/REC-SVG-20010904/DTD/svg10.dtd">
<svg version="1.0" xmlns="http://www.w3.org/2000/svg"
 width="100.000000pt" height="100.000000pt" viewBox="0 0 100.000000 100.000000"
 preserveAspectRatio="xMidYMid meet">
<metadata>
Created by potrace 1.11, written by Peter Selinger 2001-2013
</metadata>
<g transform="translate(0.000000,100.000000) scale(0.100000,-0.100000)"
fill="#000000" stroke="none">
<path d="M355 961 c-86 -25 -135 -53 -202 -115 -212 -197 -159 -505 111 -639
39 -20 89 -38 111 -41 40 -6 40 -6 -6 8 -367 107 -454 505 -157 710 79 54 157
78 278 86 l105 7 -90 1 c-59 0 -111 -6 -150 -17z"/>
<path d="M630 959 c185 -56 307 -174 340 -329 l9 -45 -4 47 c-5 56 -34 120
-76 171 -62 76 -186 150 -267 161 l-37 6 35 -11z"/>
<path d="M582 920 c-9 -25 -8 -30 7 -35 28 -9 52 5 49 28 -4 28 -25 33 -24 6
1 -12 -4 -24 -10 -26 -7 -2 -9 8 -6 27 5 38 -3 39 -16 0z"/>
<path d="M354 932 c-8 -5 -7 -15 1 -36 12 -29 13 -29 24 -8 13 25 14 35 2 27
-5 -3 -12 -1 -15 4 -4 5 2 12 11 14 13 3 14 5 3 6 -8 0 -20 -3 -26 -7z"/>
<path d="M479 924 c-9 -11 -9 -18 -1 -26 14 -14 42 -3 42 16 0 20 -27 27 -41
10z m18 -16 c-3 -8 -6 -5 -6 6 -1 11 2 17 5 13 3 -3 4 -12 1 -19z"/>
<path d="M425 920 c-9 -14 3 -30 23 -30 15 0 15 2 2 10 -13 9 -13 11 0 20 13
8 13 10 -2 10 -9 0 -20 -4 -23 -10z"/>
<path d="M538 913 c7 -3 16 -2 19 1 4 3 -2 6 -13 5 -11 0 -14 -3 -6 -6z"/>
<path d="M652 898 c-16 -16 -15 -25 2 -31 10 -4 13 -1 9 9 -4 10 0 12 11 8 9
-3 16 -1 16 6 0 6 -4 9 -9 6 -5 -4 -11 -1 -13 4 -2 7 -8 6 -16 -2z"/>
<path d="M240 879 c0 -5 4 -7 10 -4 7 4 7 -2 1 -19 -8 -18 -6 -26 4 -30 18 -6
30 10 13 18 -7 3 -1 3 15 1 31 -4 35 6 10 26 -14 12 -16 12 -9 -1 4 -9 1 -8
-7 3 -16 19 -37 23 -37 6z"/>
<path d="M708 884 c-5 -4 -8 -16 -8 -28 0 -14 3 -17 11 -9 6 6 9 19 7 28 -1 9
-6 13 -10 9z"/>
<path d="M368 851 c-67 -26 -111 -56 -148 -99 -133 -153 -77 -371 117 -458 52
-23 166 -48 158 -34 -2 4 -27 10 -54 13 -28 3 -74 17 -103 31 -198 95 -240
317 -89 467 30 29 106 68 161 83 30 8 44 15 30 15 -14 0 -46 -8 -72 -18z"/>
<path d="M580 857 c30 -7 76 -23 102 -36 56 -27 132 -107 148 -157 7 -19 14
-33 18 -30 3 3 -3 24 -13 46 -10 22 -15 44 -10 48 4 4 10 2 12 -4 6 -16 43 -5
43 12 0 20 -29 29 -43 15 -18 -18 -34 -13 -74 25 -47 44 -130 83 -192 89 l-46
5 55 -13z m287 -123 c-3 -3 -12 -4 -19 -1 -8 3 -5 6 6 6 11 1 17 -2 13 -5z"/>
<path d="M743 844 c-3 -8 0 -21 7 -27 10 -9 11 -9 6 1 -4 7 -1 12 8 12 20 0
21 16 1 24 -9 3 -18 -1 -22 -10z"/>
<path d="M791 819 c-13 -11 -21 -23 -17 -26 4 -4 16 3 28 15 28 28 20 36 -11
11z"/>
<path d="M190 805 c13 -14 26 -23 28 -20 7 7 -29 45 -41 45 -6 0 0 -11 13 -25z"/>
<path d="M436 797 c-10 -8 -20 -24 -21 -38 -2 -13 -6 -31 -10 -40 -4 -12 3
-21 28 -33 48 -22 70 -20 106 10 25 21 51 74 51 107 0 13 -135 8 -154 -6z m89
-77 c0 -30 -35 -40 -55 -15 -10 12 -10 18 0 30 20 25 55 15 55 -15z"/>
<path d="M800 785 c0 -21 29 -31 43 -15 10 10 7 12 -13 7 -24 -6 -24 -5 -6 8
19 15 19 15 -2 15 -13 0 -22 -6 -22 -15z"/>
<path d="M154 779 c-6 -10 11 -28 28 -29 15 0 20 23 7 31 -19 12 -26 11 -35
-2z"/>
<path d="M120 741 c0 -14 28 -33 40 -26 18 11 11 23 -12 18 -19 -4 -20 -3 -8
6 13 9 13 11 -2 11 -10 0 -18 -4 -18 -9z"/>
<path d="M90 710 c0 -4 14 -13 30 -19 17 -5 30 -6 30 -1 0 4 -13 13 -30 19
-16 5 -30 6 -30 1z"/>
<path d="M861 701 c-9 -6 -10 -11 -2 -15 6 -4 11 -16 11 -27 0 -20 16 -24 38
-10 10 6 11 13 1 34 -13 28 -25 33 -48 18z"/>
<path d="M561 634 c-29 -66 -95 -134 -164 -169 -46 -24 -49 -26 -20 -23 29 4
32 2 35 -26 l3 -31 67 2 c102 2 112 11 110 106 l-1 27 80 0 79 0 0 58 c0 80
-12 93 -88 97 -35 2 -66 6 -70 9 -4 2 -18 -20 -31 -50z"/>
<path d="M78 673 c6 -2 12 -11 12 -18 0 -20 27 -26 41 -9 16 19 -3 34 -41 33
-14 0 -19 -3 -12 -6z"/>
<path d="M259 656 c-8 -113 8 -136 92 -136 68 0 79 12 79 82 0 66 -8 73 -95
74 -70 2 -75 1 -76 -20z"/>
<path d="M85 620 c-11 -17 11 -34 32 -25 15 6 15 8 3 13 -8 3 -18 9 -21 15 -4
5 -9 4 -14 -3z"/>
<path d="M881 613 c0 -13 2 -14 6 -4 4 10 7 11 13 1 4 -7 13 -9 19 -6 16 10 4
26 -20 26 -12 0 -19 -7 -18 -17z"/>
<path d="M845 557 c0 -40 -7 -75 -19 -99 -29 -60 -92 -125 -149 -153 -29 -14
-41 -23 -27 -19 34 8 100 51 128 83 51 58 75 111 80 182 2 38 1 69 -4 69 -5 0
-9 -28 -9 -63z"/>
<path d="M884 578 c-3 -4 1 -8 8 -8 10 0 10 -2 -1 -9 -11 -7 -11 -10 0 -15 11
-5 11 -7 2 -12 -22 -10 -14 -19 17 -20 17 -1 30 3 30 7 0 5 -7 9 -15 9 -8 0
-15 5 -15 10 0 6 5 10 10 10 6 0 10 9 10 19 0 14 -6 19 -21 18 -11 -1 -23 -5
-25 -9z"/>
<path d="M73 573 c-13 -2 -23 -9 -23 -15 0 -6 10 -8 23 -4 12 3 28 6 35 6 6 0
12 5 12 10 0 10 -8 11 -47 3z"/>
<path d="M971 538 c-2 -119 -97 -255 -221 -318 -25 -13 -72 -32 -105 -42 -47
-14 -51 -17 -20 -13 22 4 73 22 113 40 82 39 167 118 204 188 28 55 46 136 37
167 -5 19 -7 14 -8 -22z"/>
<path d="M66 529 c-19 -19 -19 -19 2 -19 12 0 22 5 22 10 0 6 7 10 16 10 8 0
12 5 9 10 -9 15 -28 11 -49 -11z"/>
<path d="M872 465 c2 -11 -3 -26 -12 -33 -13 -12 -13 -13 4 -7 11 3 23 0 27
-7 6 -9 11 -9 23 1 21 18 20 41 -2 41 -10 0 -24 6 -31 13 -10 10 -12 8 -9 -8z"/>
<path d="M118 462 c-10 -2 -18 -12 -18 -23 0 -20 16 -24 39 -10 18 12 1 38
-21 33z m22 -16 c0 -2 -7 -7 -16 -10 -8 -3 -12 -2 -9 4 6 10 25 14 25 6z"/>
<path d="M136 407 c-15 -11 -16 -15 -4 -25 11 -9 19 -9 32 1 15 11 16 15 4 25
-11 9 -19 9 -32 -1z"/>
<path d="M830 400 c0 -6 5 -8 10 -5 6 3 10 -1 10 -10 0 -9 6 -15 13 -12 20 6
13 32 -10 35 -13 2 -23 -2 -23 -8z"/>
<path d="M162 364 c-12 -8 -22 -21 -22 -27 0 -8 3 -9 8 -1 4 6 15 13 25 17 9
3 17 11 17 17 0 13 -1 13 -28 -6z"/>
<path d="M423 373 c-15 -6 -18 -53 -3 -53 6 0 10 5 10 11 0 8 5 7 15 -1 13
-11 14 -10 9 4 -3 9 -10 16 -15 16 -5 0 -9 5 -9 11 0 6 7 8 16 5 8 -3 12 -2 9
4 -7 11 -13 11 -32 3z"/>
<path d="M470 351 c0 -17 5 -31 10 -31 6 0 10 11 10 24 0 14 -4 28 -10 31 -6
4 -10 -7 -10 -24z"/>
<path d="M536 368 c4 -6 -1 -8 -12 -4 -15 4 -19 0 -20 -20 -1 -15 3 -23 10
-21 6 3 10 10 9 16 -2 6 2 11 7 11 6 0 10 -6 10 -13 0 -9 15 -14 48 -14 26 0
41 2 35 4 -7 3 -13 9 -13 14 0 6 5 7 10 4 6 -3 10 -1 10 4 0 17 -21 13 -37 -6
-13 -17 -13 -17 -11 1 2 14 -5 21 -25 27 -18 5 -25 4 -21 -3z"/>
<path d="M647 373 c-8 -8 -9 -53 -1 -53 3 0 12 7 20 15 10 10 11 15 4 15 -7 0
-10 7 -6 15 5 15 -5 20 -17 8z"/>
<path d="M805 371 c-6 -11 33 -36 42 -27 7 7 -16 36 -28 36 -4 0 -10 -4 -14
-9z"/>
<path d="M330 359 c0 -17 28 -40 35 -29 3 6 0 17 -9 25 -17 18 -26 19 -26 4z"/>
<path d="M374 354 c3 -9 6 -20 6 -25 0 -5 4 -9 9 -9 5 0 9 11 9 25 0 15 -6 25
-15 25 -10 0 -13 -6 -9 -16z"/>
<path d="M196 344 c-3 -8 -10 -12 -16 -9 -5 3 -10 2 -10 -4 0 -19 18 -20 34
-2 10 11 13 22 8 25 -6 3 -13 -1 -16 -10z"/>
<path d="M772 330 c-12 -10 -28 -20 -35 -23 -9 -3 -8 -9 5 -22 16 -17 38 -13
38 6 0 6 -5 7 -11 3 -8 -4 -8 0 0 15 13 23 26 27 37 9 4 -7 3 -8 -4 -4 -7 4
-12 2 -12 -3 0 -14 17 -14 26 0 3 6 0 17 -7 24 -12 12 -18 11 -37 -5z"/>
<path d="M216 314 c-3 -9 -4 -20 0 -25 7 -12 24 -11 24 2 0 5 -5 7 -12 3 -7
-4 -8 -3 -4 4 4 6 13 9 21 5 8 -3 15 -1 15 5 0 5 -7 13 -16 16 -21 8 -21 8
-28 -10z"/>
<path d="M256 278 c-21 -30 -9 -38 15 -9 10 13 19 19 19 14 0 -5 -5 -14 -12
-21 -7 -7 -8 -12 -2 -12 20 0 34 23 23 37 -16 18 -26 16 -43 -9z"/>
<path d="M704 265 c0 -14 2 -25 3 -25 1 0 8 3 17 6 12 5 13 9 3 25 -16 26 -25
24 -23 -6z"/>
<path d="M550 270 l-45 -7 40 -1 c22 0 49 3 60 8 23 10 9 10 -55 0z"/>
<path d="M317 263 c-13 -13 -7 -31 12 -36 20 -5 36 17 25 34 -6 11 -28 12 -37
2z"/>
<path d="M650 260 c0 -5 4 -10 10 -10 5 0 8 -6 6 -12 -1 -7 -1 -10 1 -5 3 4 9
5 14 1 13 -8 11 10 -3 24 -15 15 -28 16 -28 2z"/>
<path d="M608 252 c-10 -2 -18 -9 -18 -17 0 -14 30 -43 30 -29 0 5 4 3 9 -5
14 -21 19 1 7 29 -7 16 -17 24 -28 22z"/>
<path d="M370 230 c0 -25 17 -26 23 -2 3 12 5 9 6 -8 1 -22 3 -23 12 -7 13 22
4 37 -22 37 -12 0 -19 -7 -19 -20z"/>
<path d="M437 234 c-14 -14 -7 -34 12 -34 25 0 37 18 22 33 -8 8 -11 6 -12 -8
0 -19 -1 -19 -8 -2 -3 10 -10 15 -14 11z"/>
<path d="M516 225 c4 -9 0 -15 -7 -15 -12 0 -12 -2 0 -9 7 -5 11 -14 7 -20 -5
-7 -1 -9 9 -5 18 7 17 64 -2 64 -7 0 -10 -7 -7 -15z"/>
<path d="M429 157 c4 -4 41 -7 82 -5 l74 3 -82 5 c-45 3 -78 1 -74 -3z"/>
<path d="M209 91 c5 -46 5 -46 10 -11 l6 34 13 -28 c9 -19 16 -26 23 -19 13
13 -20 72 -41 70 -12 -1 -14 -11 -11 -46z"/>
<path d="M280 120 c-8 -14 -7 -25 2 -40 21 -34 37 -32 33 3 -2 18 -4 38 -4 45
-1 19 -19 14 -31 -8z"/>
<path d="M350 99 c0 -21 2 -39 4 -39 2 0 13 -3 23 -6 15 -6 16 -4 6 7 -18 18
-16 32 2 25 8 -3 15 -1 15 4 0 6 -7 10 -15 10 -8 0 -15 4 -15 8 0 17 13 21 32
11 16 -9 19 -8 16 3 -3 7 -19 14 -36 15 -31 1 -32 0 -32 -38z"/>
<path d="M448 99 c5 -50 27 -51 27 -1 0 27 -4 38 -15 39 -12 1 -15 -7 -12 -38z"/>
<path d="M495 94 c0 -24 1 -44 2 -44 1 0 9 7 17 16 21 20 20 47 -1 60 -16 10
-18 6 -18 -32z"/>
<path d="M565 132 c-16 -11 -14 -72 2 -72 7 0 13 8 13 17 0 14 3 13 20 -5 12
-12 23 -22 25 -22 7 0 0 64 -8 78 -9 13 -36 16 -52 4z m35 -17 c0 -8 -4 -15
-10 -15 -5 0 -10 7 -10 15 0 8 5 15 10 15 6 0 10 -7 10 -15z"/>
<path d="M733 95 c0 -31 4 -42 14 -38 7 3 13 12 13 20 0 9 6 13 14 10 10 -4
13 -1 9 8 -3 8 -9 12 -14 9 -5 -3 -9 2 -9 10 0 19 11 21 28 4 9 -9 12 -9 12 3
0 10 -11 15 -34 16 -33 1 -34 0 -33 -42z"/>
<path d="M662 98 c-17 -17 -15 -26 10 -39 18 -9 20 -9 15 4 -3 9 1 18 9 21 17
7 10 26 -10 26 -6 0 -17 -5 -24 -12z"/>
<path d="M317 27 c2 -4 31 -7 64 -6 33 1 57 4 55 6 -8 8 -124 8 -119 0z"/>
<path d="M454 29 c-2 -4 19 -7 46 -8 28 0 50 3 50 7 0 9 -90 10 -96 1z"/>
<path d="M673 25 c0 -8 4 -12 9 -9 5 3 6 10 3 15 -9 13 -12 11 -12 -6z"/>
<path d="M598 23 c6 -2 18 -2 25 0 6 3 1 5 -13 5 -14 0 -19 -2 -12 -5z"/>
</g>
</svg>
